<svg xmlns="http://www.w3.org/2000/svg" id="LOGO_LTB" viewBox="0 0 466.89998 63.1" width="466.9" height="63.1"><style id="style10">.st0{fill:#221F20;} .st1{fill:none;} .st2{fill:#DD4A33;}</style><g id="LTB_1_"><g id="g34"><g id="g32"><g id="g30"><g id="g28"><g id="g26"><g id="g24"><g id="g22"><g id="g20"><g id="g18" fill="#221f20"><path class="st0" d="M679.6 40.7h8.1v45.4h18.6v7.1h-26.7z" id="path12"/><path class="st0" d="M742.4 47.7h-14v45.4h-8V47.7h-14v-7.1h36z" id="path14"/><path class="st0" d="M786.9 79.1c0 8.6-6.6 14.1-14.8 14.1h-22.3V40.7h18.3c8.3 0 15 5.6 15 14.2 0 5.3-2.5 9.1-6.4 11.3 6 1.6 10.2 6 10.2 12.9zm-19.7-31.4h-9.4v15.9h9.4c4.3 0 7.8-3.6 7.8-8s-3.5-7.9-7.8-7.9zm11.7 30.4c0-4.3-3.5-7.9-7.9-7.9h-13.2v15.9H771c4.4 0 7.9-3.6 7.9-8z" id="path16"/></g></g></g></g></g></g></g></g></g><g id="g44"><path class="st1" d="M646.3 36.1H576c-1.6 0-2.9 1.3-3 2.9l-1.6 55.3c0 .8.3 1.6.8 2.2.6.6 1.3.9 2.1.9h73.4c.8 0 1.6-.3 2.1-.9.6-.6.9-1.4.8-2.2L649.2 39c0-1.6-1.3-2.9-2.9-2.9zM636 68.2l-3 3c-.5.5-1.1.7-1.7.7-.6 0-1.2-.2-1.7-.7-.9-.9-.9-2.4 0-3.3l3-3c2-2 3.2-4.7 3.2-7.6 0-2.9-1.1-5.6-3.2-7.6-4.2-4.2-11-4.2-15.2 0l-9.1 9.1c-.9.9-2.4.9-3.3 0-.9-.9-.9-2.4 0-3.3l3-3c-.2-.1-.4-.2-.5-.4l-2.5-2.5c-4.2-4.2-11-4.2-15.2 0-4.2 4.2-4.2 11 0 15.2l1.1 1.1 20.4 20.4 11.9-11.9c.9-.9 2.4-.9 3.3 0 .9.9.9 2.4 0 3.3l-13.6 13.6c-.5.5-1.1.7-1.7.7-.6 0-1.2-.2-1.7-.7l-22.1-22.1-1.1-1.1c-6-6-6-15.9 0-21.9 6-6 15.9-6 21.9 0l2.5 2.5c.2.2.3.4.4.5l3-3c6-6 15.9-6 21.9 0 2.9 2.9 4.5 6.8 4.5 11s-1.6 8-4.5 11z" id="path36" fill="none"/><path class="st1" d="M625.4 29.3c0-7.9-6.4-14.3-14.3-14.3s-14.3 6.4-14.3 14.3v2.1h28.7v-2.1z" id="path38" fill="none"/><path class="st2" d="M646.3 31.4h-16.1v-2.1c0-10.5-8.6-19.1-19.1-19.1-10.5 0-19.1 8.6-19.1 19.1v2.1h-16c-4.2 0-7.6 3.3-7.7 7.5l-1.6 55.3c-.1 2.1.7 4.1 2.2 5.6 1.5 1.5 3.4 2.3 5.5 2.3h73.4c2.1 0 4.1-.8 5.5-2.3 1.4-1.5 2.2-3.5 2.2-5.6L654 38.9c-.2-4.3-3.5-7.5-7.7-7.5zm-49.6-2.1c0-7.9 6.4-14.3 14.3-14.3s14.3 6.4 14.3 14.3v2.1h-28.7v-2.1zM650 96.4c-.6.6-1.3.9-2.1.9h-73.4c-.8 0-1.6-.3-2.1-.9-.6-.6-.9-1.4-.8-2.2L573 39c0-1.6 1.4-2.9 3-2.9h70.2c1.6 0 2.9 1.3 3 2.9l1.6 55.3c.1.8-.2 1.6-.8 2.1z" id="path40" fill="#dd4a33"/><path class="st2" d="M614.1 46.3l-3 3c-.1-.2-.2-.4-.4-.5l-2.5-2.5c-6-6-15.9-6-21.9 0-6 6-6 15.9 0 21.9l1.1 1.1 22.1 22.1c.5.5 1.1.7 1.7.7.6 0 1.2-.2 1.7-.7l13.6-13.6c.9-.9.9-2.4 0-3.3-.9-.9-2.4-.9-3.3 0l-11.9 11.9L590.9 66l-1.1-1.1c-4.2-4.2-4.2-11 0-15.2 4.2-4.2 11-4.2 15.2 0l2.5 2.5c.2.2.4.3.5.4l-3 3c-.9.9-.9 2.4 0 3.3.9.9 2.4.9 3.3 0l9.1-9.1c4.2-4.2 11-4.2 15.2 0 2 2 3.2 4.7 3.2 7.6 0 2.9-1.1 5.6-3.2 7.6l-3 3c-.9.9-.9 2.4 0 3.3.5.5 1.1.7 1.7.7.6 0 1.2-.2 1.7-.7l3-3c2.9-2.9 4.5-6.8 4.5-11 0-4.1-1.6-8-4.5-11-6.1-6.1-15.9-6.1-21.9 0z" id="path42" fill="#dd4a33"/></g></g><g id="love_the_brands"><path class="st1" d="M-455.2 65.8c-4.8 0-7.6 4-7.6 8.9s2.8 8.9 7.6 8.9c4.7 0 7.6-4 7.6-8.9s-2.9-8.9-7.6-8.9z" id="path47" fill="none"/><path class="st1" d="M-395.7 65.7c-4.1 0-6.4 2.4-7.1 6.3h13.9c-.6-4-2.9-6.3-6.8-6.3z" id="path49" fill="none"/><path class="st1" d="M-516.8 37.4h-74.3c-1.7 0-3.1 1.4-3.2 3.1L-596 99c0 .9.3 1.7.9 2.3.6.6 1.4 1 2.3 1h77.7c.9 0 1.7-.3 2.3-1 .6-.6.9-1.4.9-2.3l-1.7-58.5c-.1-1.7-1.5-3.1-3.2-3.1zm-10.9 34l-3.1 3.1c-.5.5-1.1.7-1.8.7s-1.3-.2-1.8-.7c-1-1-1-2.6 0-3.5l3.1-3.1c2.2-2.2 3.3-5 3.3-8.1 0-3-1.2-5.9-3.3-8.1-4.4-4.4-11.7-4.4-16.1 0l-9.7 9.7c-1 1-2.6 1-3.5 0-1-1-1-2.6 0-3.5l3.1-3.1c-.2-.1-.4-.2-.6-.4l-2.6-2.6c-4.4-4.4-11.7-4.4-16.1 0-4.4 4.4-4.4 11.7 0 16.1l1.1 1.1 21.6 21.6 12.6-12.6c1-1 2.6-1 3.5 0 1 1 1 2.6 0 3.5l-14.3 14.3c-.5.5-1.1.7-1.8.7s-1.3-.2-1.8-.7l-23.4-23.4-1.1-1.1c-6.4-6.4-6.4-16.8 0-23.2 6.4-6.4 16.8-6.4 23.2 0l2.6 2.6c.2.2.3.4.4.6l3.2-3.2c6.4-6.4 16.8-6.4 23.2 0 3.1 3.1 4.8 7.2 4.8 11.6 0 4.4-1.6 8.6-4.7 11.7z" id="path51" fill="none"/><path class="st1" d="M-538.9 30.2c0-8.4-6.8-15.2-15.2-15.2-8.4 0-15.2 6.8-15.2 15.2v2.2h30.4z" id="path53" fill="none"/><path class="st1" d="M-303.3 63.6c-5.5 0-8.9 4-9.5 9.5h18.8c-.6-5.6-3.9-9.5-9.3-9.5z" id="path55" fill="none"/><path class="st1" d="M-258.6 65.8c-3.2 0-5.9 2.4-7 5.7v6.4c1.1 3.4 3.8 5.7 7 5.7 4.8 0 7.6-4 7.6-8.9s-2.8-8.9-7.6-8.9z" id="path57" fill="none"/><path class="st1" d="M-211.7 80.3c0 2 1.5 3.4 3.7 3.4 2.8 0 5.6-1.6 7.7-3.4v-2.5l-3.6-.5c-6.3-1-7.8.8-7.8 3z" id="path59" fill="none"/><path class="st1" d="M-142.4 65.8c-4.8 0-7.6 4-7.6 8.9s2.8 8.9 7.6 8.9c3.2 0 6-2.4 7.1-5.7v-6.4c-1.1-3.3-3.8-5.7-7.1-5.7z" id="path61" fill="none"/><path class="st0" d="M-476.2 83.8c-2.3 0-3.6-1.3-3.6-4.1l-.1-32.4h-6.1v32.4c0 5.6 3.7 9.3 9.6 9.3 2.9 0 5.1-.9 6.5-2.4l-3.4-4.1c-.7 1-1.7 1.3-2.9 1.3z" id="path63" fill="#221f20"/><path class="st0" d="M-455.2 60.4c-8.1 0-13.6 6.3-13.6 14.3s5.4 14.3 13.6 14.3 13.6-6.3 13.6-14.3c-.1-7.9-5.5-14.3-13.6-14.3zm0 23.2c-4.8 0-7.6-4-7.6-8.9s2.8-8.9 7.6-8.9c4.7 0 7.6 4 7.6 8.9s-2.9 8.9-7.6 8.9z" id="path65" fill="#221f20"/><path class="st0" id="polygon67" fill="#221f20" d="M-422.5 88.5l11.1-27.5h-6.5l-7.4 20.2-7.4-20.2h-6.6l11 27.5z"/><path class="st0" d="M-395.8 60.4c-8.2 0-13.2 6.1-13.2 14.4s4.9 14.2 13.2 14.2c5.4 0 9.2-2.5 11.5-6.8l-4.2-3c-2.3 3.5-4 4.5-7 4.5-4.5 0-6.9-2.7-7.4-7.1h19.5c.1-.6.1-1.2.1-1.7-.2-8.5-4.6-14.5-12.5-14.5zm-7.1 11.6c.7-3.9 3.1-6.3 7.1-6.3 4 0 6.2 2.4 6.8 6.3z" id="path69" fill="#221f20"/><path class="st0" d="M-355.9 85.8c-2.3 0-3.7-1.4-3.7-4v-18h7.1V61h-7.1v-9.3h-3.6V61h-3.8v2.9h3.8v18c0 4.2 2.9 7.1 7.3 7.1 2.1 0 3.8-.7 5-1.9l-2-2.5c-.9.9-1.8 1.2-3 1.2z" id="path71" fill="#221f20"/><path class="st0" d="M-333.7 60.4c-3.8 0-7 1.8-9 4.6V47.2h-3.6v41.2h3.6V71.5c0-4.4 3.6-7.9 8.1-7.9s7.9 3.4 7.9 7.8v17h3.6V71c.1-6-4.5-10.6-10.6-10.6z" id="path73" fill="#221f20"/><path class="st0" d="M-303.4 60.4c-8 0-13 6.3-13 14.3 0 8.1 5.1 14.3 13 14.3 4.9 0 8.6-2.3 10.8-6l-2.5-1.8c-2.1 3.3-4.6 4.7-8.1 4.7-5.7 0-9.2-4.1-9.6-9.9h22.1c.1-.5.1-1 .1-1.4-.2-8.3-5.1-14.2-12.8-14.2zm-9.4 12.7c.6-5.6 4-9.5 9.5-9.5 5.4 0 8.7 3.9 9.2 9.5z" id="path75" fill="#221f20"/><path class="st0" d="M-257.6 60.4c-3.2 0-6 1.3-8 3.4V47.2h-6v41.2h5.4l.3-3.1c2 2.3 4.9 3.6 8.3 3.6 7.8 0 12.6-6.3 12.6-14.3 0-7.9-4.8-14.2-12.6-14.2zm-1 23.2c-3.2 0-5.9-2.4-7-5.7v-6.4c1.1-3.4 3.8-5.7 7-5.7 4.8 0 7.6 4 7.6 8.9s-2.8 8.9-7.6 8.9z" id="path77" fill="#221f20"/><path class="st0" d="M-233.2 64.8l-.3-3.8h-5.6v27.5h6.1V73.8c0-4.7 3.5-7.9 7.3-7.9 2.2 0 3.5.7 4.1 1l2.9-4.3c-1.6-1.4-3.2-2-6.7-2-3-.2-5.8 1.6-7.8 4.2z" id="path79" fill="#221f20"/><path class="st0" d="M-206.1 60.4c-5.3 0-8.7 1.8-11.1 4.7l4.2 3.8c1.8-2.3 3.7-3.3 6.6-3.3 3.2 0 6 1.5 6 5.2v2.5l-4.6-.6c-9.2-1.3-13 3-13 7.9s3.6 8.4 8.5 8.4c3.3 0 6.7-1.6 9.5-4l.3 3.4h5.4V71.1c0-7.1-5.3-10.7-11.8-10.7zm5.8 19.8c-2.1 1.8-4.9 3.4-7.7 3.4-2.2 0-3.7-1.3-3.7-3.4 0-2.1 1.5-4 7.8-3.1l3.6.5z" id="path81" fill="#221f20"/><path class="st0" d="M-172.3 60.4c-3.6 0-6.6 1.4-8.7 3.8l-.3-3.2h-5.6v27.5h6.1V72.2c0-3.5 3-6.3 6.7-6.3 3.6 0 6.3 2.5 6.3 6v16.7h6.2V71.2c0-6.4-4.5-10.8-10.7-10.8z" id="path83" fill="#221f20"/><path class="st0" d="M-135.3 63.8c-2-2.1-4.8-3.4-8.1-3.4-7.8 0-12.6 6.3-12.6 14.3s4.8 14.3 12.6 14.3c3.4 0 6.3-1.4 8.3-3.6l.3 3.1h5.4V47.2h-5.9zm0 14.1c-1.1 3.4-3.8 5.7-7.1 5.7-4.8 0-7.6-4-7.6-8.9s2.8-8.9 7.6-8.9c3.2 0 6 2.4 7.1 5.7z" id="path85" fill="#221f20"/><path class="st0" d="M-110 72.1c-3.2-1-6-1.8-6-4.1 0-2 2.9-3.1 5.4-2.8 2 .2 4.3 1.2 5.7 2.4l3.3-4.2c-2.5-1.8-6.5-3-10.1-3-5.8 0-10.5 3.5-10.5 8.4 0 5.1 5 6.6 9.2 8 3.1 1 5.8 1.9 5.8 4.2 0 2-2.2 3.2-5.2 3.1-2.9-.1-6.7-1.4-8.1-3.2l-3 4.2c2.3 2.3 7.1 3.9 11.5 3.9 6.4 0 11.1-3.6 11.1-8.7-.1-5.3-4.9-6.9-9.1-8.2z" id="path87" fill="#221f20"/><path class="st2" d="M-516.8 32.4h-17v-2.2c0-11.1-9.1-20.2-20.2-20.2s-20.2 9.1-20.2 20.2v2.2h-16.9c-4.5 0-8 3.5-8.2 7.9l-1.7 58.5c-.1 2.2.8 4.3 2.3 5.9 1.6 1.6 3.6 2.5 5.9 2.5h77.7c2.2 0 4.3-.9 5.9-2.5 1.6-1.6 2.4-3.7 2.3-5.9l-1.7-58.5c-.2-4.4-3.8-7.9-8.2-7.9zm-52.4-2.2c0-8.4 6.8-15.2 15.2-15.2 8.4 0 15.2 6.8 15.2 15.2v2.2h-30.4zm56.3 71.1c-.6.6-1.4 1-2.3 1h-77.7c-.9 0-1.7-.3-2.3-1-.6-.6-.9-1.4-.9-2.3l1.7-58.5c0-1.7 1.4-3.1 3.2-3.1h74.3c1.7 0 3.1 1.4 3.2 3.1L-512 99c0 .8-.3 1.7-.9 2.3z" id="path89" fill="#dd4a33"/><path class="st2" d="M-550.9 48.2l-3.2 3.2c-.1-.2-.2-.4-.4-.6l-2.6-2.6c-6.4-6.4-16.8-6.4-23.2 0-6.4 6.4-6.4 16.8 0 23.2l1.1 1.1 23.4 23.4c.5.5 1.1.7 1.8.7s1.3-.2 1.8-.7l14.3-14.3c1-1 1-2.6 0-3.5-1-1-2.6-1-3.5 0L-554 90.7l-21.6-21.6-1.1-1.1c-4.4-4.4-4.4-11.7 0-16.1 4.4-4.4 11.7-4.4 16.1 0l2.6 2.6c.2.2.4.3.6.4l-3.1 3.1c-1 1-1 2.6 0 3.5 1 1 2.6 1 3.5 0l9.7-9.7c4.4-4.4 11.7-4.4 16.1 0 2.2 2.2 3.3 5 3.3 8.1 0 3-1.2 5.9-3.3 8.1l-3.1 3.1c-1 1-1 2.6 0 3.5.5.5 1.1.7 1.8.7s1.3-.2 1.8-.7l3.1-3.1c3.1-3.1 4.8-7.2 4.8-11.6 0-4.4-1.7-8.5-4.8-11.6-6.5-6.5-16.9-6.5-23.3-.1z" id="path91" fill="#dd4a33"/></g><g id="love_the_brands_-_DESKTOP"><g id="g132"><path class="st1" d="M112.5 36.4c-4.8 0-7.6 4-7.6 8.9s2.8 8.9 7.6 8.9c4.7 0 7.6-4 7.6-8.9s-2.9-8.9-7.6-8.9z" id="path94" fill="none"/><path class="st1" d="M172 36.2c-4.1 0-6.4 2.4-7.1 6.3h13.9c-.6-3.9-2.8-6.3-6.8-6.3z" id="path96" fill="none"/><path class="st1" d="M264.4 34.1c-5.5 0-8.9 4-9.5 9.5h18.8c-.5-5.6-3.9-9.5-9.3-9.5z" id="path98" fill="none"/><path class="st1" d="M309.1 36.4c-3.2 0-5.9 2.4-7 5.7v6.4c1.1 3.4 3.8 5.7 7 5.7 4.8 0 7.6-4 7.6-8.9s-2.8-8.9-7.6-8.9z" id="path100" fill="none"/><path class="st1" d="M356 50.8c0 2 1.5 3.4 3.7 3.4 2.8 0 5.6-1.6 7.7-3.4v-2.5l-3.6-.5c-6.3-1-7.8.9-7.8 3z" id="path102" fill="none"/><path class="st1" d="M425.4 36.4c-4.8 0-7.6 4-7.6 8.9s2.8 8.9 7.6 8.9c3.2 0 6-2.4 7.1-5.7v-6.4c-1.1-3.4-3.9-5.7-7.1-5.7z" id="path104" fill="none"/><path class="st0" d="M91.5 54.3c-2.3 0-3.6-1.3-3.6-4.1l-.1-32.4h-6.1v32.4c0 5.6 3.7 9.3 9.6 9.3 2.9 0 5.1-.9 6.5-2.4L94.4 53c-.7 1-1.7 1.3-2.9 1.3z" id="path106" fill="#221f20"/><path class="st0" d="M112.5 31c-8.1 0-13.6 6.3-13.6 14.3s5.4 14.3 13.6 14.3 13.6-6.3 13.6-14.3S120.6 31 112.5 31zm0 23.2c-4.8 0-7.6-4-7.6-8.9s2.8-8.9 7.6-8.9c4.7 0 7.6 4 7.6 8.9s-2.9 8.9-7.6 8.9z" id="path108" fill="#221f20"/><path class="st0" id="polygon110" fill="#221f20" d="M145.3 59l11-27.5h-6.5l-7.4 20.3-7.4-20.3h-6.6l11 27.5z"/><path class="st0" d="M171.9 31c-8.2 0-13.2 6.1-13.2 14.4s4.9 14.2 13.2 14.2c5.4 0 9.2-2.5 11.5-6.8l-4.2-3c-2.3 3.5-4 4.5-7 4.5-4.5 0-6.9-2.7-7.4-7.1h19.5c.1-.6.1-1.2.1-1.7-.1-8.5-4.5-14.5-12.5-14.5zm-7.1 11.5c.7-3.9 3.1-6.3 7.1-6.3 4 0 6.2 2.4 6.8 6.3z" id="path112" fill="#221f20"/><path class="st0" d="M211.8 56.4c-2.3 0-3.7-1.4-3.7-4v-18h7.1v-2.9h-7.1v-9.3h-3.6v9.3h-3.8v2.9h3.8v18c0 4.2 2.9 7.1 7.3 7.1 2.1 0 3.8-.7 5-1.9l-2-2.5c-.9.9-1.8 1.3-3 1.3z" id="path114" fill="#221f20"/><path class="st0" d="M234.1 31c-3.8 0-7 1.8-9 4.6V17.8h-3.6V59h3.6V42.1c0-4.4 3.6-7.9 8.1-7.9s7.9 3.4 7.9 7.8v17h3.6V41.6c0-6.1-4.6-10.6-10.6-10.6z" id="path116" fill="#221f20"/><path class="st0" d="M264.4 31c-8 0-13 6.3-13 14.3 0 8.1 5.1 14.3 13 14.3 4.9 0 8.6-2.3 10.8-6l-2.5-1.8c-2.1 3.3-4.6 4.7-8.1 4.7-5.7 0-9.2-4.1-9.6-9.9h22.1c.1-.5.1-1 .1-1.4-.2-8.3-5.1-14.2-12.8-14.2zm-9.5 12.6c.6-5.6 4-9.5 9.5-9.5 5.4 0 8.7 3.9 9.2 9.5z" id="path118" fill="#221f20"/><path class="st0" d="M310.1 31c-3.2 0-6 1.3-8 3.4V17.8h-6V59h5.4l.3-3.1c2 2.3 4.9 3.6 8.3 3.6 7.8 0 12.6-6.3 12.6-14.3S317.9 31 310.1 31zm-1 23.2c-3.2 0-5.9-2.4-7-5.7v-6.4c1.1-3.4 3.8-5.7 7-5.7 4.8 0 7.6 4 7.6 8.9s-2.8 8.9-7.6 8.9z" id="path120" fill="#221f20"/><path class="st0" d="M334.5 35.4l-.3-3.8h-5.6V59h6.1V44.3c0-4.7 3.5-7.9 7.3-7.9 2.2 0 3.5.7 4.1 1L349 33c-1.6-1.4-3.2-2-6.7-2-3 0-5.8 1.7-7.8 4.4z" id="path122" fill="#221f20"/><path class="st0" d="M361.6 31c-5.3 0-8.7 1.8-11.1 4.7l4.2 3.8c1.8-2.3 3.7-3.3 6.6-3.3 3.2 0 6 1.5 6 5.2v2.5l-4.6-.6c-9.2-1.3-13 3-13 7.9s3.6 8.4 8.5 8.4c3.3 0 6.7-1.6 9.5-4l.3 3.4h5.4V41.8c0-7.3-5.3-10.8-11.8-10.8zm5.8 19.8c-2.1 1.8-4.9 3.4-7.7 3.4-2.2 0-3.7-1.3-3.7-3.4 0-2.1 1.5-4 7.8-3.1l3.6.5z" id="path124" fill="#221f20"/><path class="st0" d="M395.4 31c-3.6 0-6.6 1.4-8.7 3.8l-.3-3.2h-5.6V59h6.1V42.7c0-3.5 3-6.3 6.7-6.3 3.6 0 6.3 2.5 6.3 6V59h6.2V41.6c0-6.3-4.5-10.6-10.7-10.6z" id="path126" fill="#221f20"/><path class="st0" d="M432.5 34.4c-2-2.1-4.8-3.4-8.1-3.4-7.8 0-12.6 6.3-12.6 14.3s4.8 14.3 12.6 14.3c3.4 0 6.3-1.4 8.3-3.6l.3 3h5.4V17.8h-5.9zm0 14.1c-1.1 3.4-3.8 5.7-7.1 5.7-4.8 0-7.6-4-7.6-8.9s2.8-8.9 7.6-8.9c3.2 0 6 2.4 7.1 5.7z" id="path128" fill="#221f20"/><path class="st0" d="M457.8 42.7c-3.2-1-6-1.8-6-4.1 0-2 2.9-3.1 5.4-2.8 2 .2 4.3 1.2 5.7 2.4l3.3-4.2c-2.5-1.8-6.5-3-10.1-3-5.8 0-10.5 3.5-10.5 8.4 0 5.1 5 6.6 9.2 8 3.1 1 5.8 1.9 5.8 4.2 0 2-2.2 3.2-5.2 3.1-2.9-.1-6.7-1.4-8.1-3.2l-3 4.2c2.3 2.3 7.1 3.9 11.5 3.9 6.4 0 11.1-3.6 11.1-8.7-.2-5.4-5-6.9-9.1-8.2z" id="path130" fill="#221f20"/></g><g id="g142"><path class="st1" d="M54.6 17.8H6.4c-1.1 0-2 .9-2.1 2l-1.1 38c0 .6.2 1.1.6 1.5.4.4.9.6 1.5.6h50.4c.6 0 1.1-.2 1.5-.6.4-.4.6-.9.6-1.5l-1.1-38c-.1-1.1-1-2-2.1-2zm-7 22l-2 2c-.3.3-.7.5-1.1.5-.4 0-.8-.2-1.1-.5-.6-.6-.6-1.7 0-2.3l2-2c1.4-1.4 2.2-3.3 2.2-5.2 0-2-.8-3.8-2.2-5.2-2.9-2.9-7.6-2.9-10.5 0l-6.3 6.3c-.6.6-1.7.6-2.3 0-.6-.6-.6-1.7 0-2.3l2-2c-.1-.1-.3-.2-.4-.3l-1.7-1.7c-2.9-2.9-7.6-2.9-10.5 0-2.9 2.9-2.9 7.6 0 10.5l.7.7 14 14 8.2-8.2c.6-.6 1.7-.6 2.3 0 .6.6.6 1.7 0 2.3l-9.3 9.3c-.3.3-.7.5-1.1.5-.4 0-.8-.2-1.1-.5L14.2 40.5l-.7-.7c-4.1-4.1-4.1-10.9 0-15s10.9-4.1 15 0l1.7 1.7c.1.1.2.2.3.4l2.1-2.1c4.1-4.1 10.9-4.1 15 0 2 2 3.1 4.7 3.1 7.5s-1.1 5.5-3.1 7.5z" id="path134" fill="none"/><path class="st1" d="M40.3 13.1c0-5.4-4.4-9.9-9.9-9.9s-9.9 4.4-9.9 9.9v1.4h19.7v-1.4z" id="path136" fill="none"/><path class="st2" d="M54.6 14.5h-11v-1.4C43.6 5.9 37.7 0 30.5 0c-7.2 0-13.1 5.9-13.1 13.1v1.4h-11c-2.9 0-5.2 2.3-5.3 5.2L0 57.7c0 1.4.5 2.8 1.5 3.8s2.4 1.6 3.8 1.6h50.4c1.4 0 2.8-.6 3.8-1.6s1.5-2.4 1.5-3.8l-1.1-38c-.1-2.9-2.4-5.2-5.3-5.2zm-34-1.4c0-5.4 4.4-9.9 9.9-9.9s9.9 4.4 9.9 9.9v1.4H20.6zm36.6 46.1c-.4.4-.9.6-1.5.6H5.3c-.6 0-1.1-.2-1.5-.6-.4-.4-.6-.9-.6-1.5l1.1-38c0-1.1.9-2 2.1-2h48.2c1.1 0 2 .9 2.1 2l1.1 38c0 .6-.2 1.1-.6 1.5z" id="path138" fill="#dd4a33"/><path class="st2" d="M32.5 24.8l-2.1 2.1c-.1-.1-.2-.3-.3-.4l-1.7-1.7c-4.1-4.1-10.9-4.1-15 0s-4.1 10.9 0 15l.7.7 15.2 15.2c.3.3.7.5 1.1.5.4 0 .8-.2 1.1-.5l9.3-9.3c.6-.6.6-1.7 0-2.3-.6-.6-1.7-.6-2.3 0l-8.2 8.2-14-14-.7-.7c-2.9-2.9-2.9-7.6 0-10.5 2.9-2.9 7.6-2.9 10.5 0l1.7 1.7c.1.1.2.2.4.3l-2 2c-.6.6-.6 1.7 0 2.3.6.6 1.7.6 2.3 0l6.3-6.3c2.9-2.9 7.6-2.9 10.5 0 1.4 1.4 2.2 3.3 2.2 5.2 0 2-.8 3.8-2.2 5.2l-2 2c-.6.6-.6 1.7 0 2.3.3.3.7.5 1.1.5.4 0 .8-.2 1.1-.5l2-2c2-2 3.1-4.7 3.1-7.5s-1.1-5.5-3.1-7.5c-4.1-4.2-10.8-4.2-15 0z" id="path140" fill="#dd4a33"/></g></g><g id="love_the_brands_-_MOBILE"><g id="g165"><path class="st1" d="M-866.7 56c-4.8 0-7.6 4-7.6 8.9s2.8 8.9 7.6 8.9c4.7 0 7.6-4 7.6-8.9s-2.9-8.9-7.6-8.9z" id="path145" fill="none"/><path class="st1" d="M-807.2 55.8c-4.1 0-6.4 2.4-7.1 6.3h13.9c-.6-3.9-2.8-6.3-6.8-6.3z" id="path147" fill="none"/><path class="st1" d="M-714.8 53.7c-5.5 0-8.9 4-9.5 9.5h18.8c-.5-5.6-3.9-9.5-9.3-9.5z" id="path149" fill="none"/><path class="st0" d="M-887.7 74c-2.3 0-3.6-1.3-3.6-4.1l-.1-32.4h-6.1v32.4c0 5.6 3.7 9.3 9.6 9.3 2.9 0 5.1-.9 6.5-2.4l-3.4-4.1c-.7 1-1.7 1.3-2.9 1.3z" id="path151" fill="#221f20"/><path class="st0" d="M-866.7 50.6c-8.1 0-13.6 6.3-13.6 14.3s5.4 14.3 13.6 14.3 13.6-6.3 13.6-14.3-5.5-14.3-13.6-14.3zm0 23.2c-4.8 0-7.6-4-7.6-8.9s2.8-8.9 7.6-8.9c4.7 0 7.6 4 7.6 8.9s-2.9 8.9-7.6 8.9z" id="path153" fill="#221f20"/><path class="st0" id="polygon155" fill="#221f20" d="M-833.9 78.7l11-27.5h-6.5l-7.4 20.2-7.4-20.2h-6.6l11 27.5z"/><path class="st0" d="M-807.3 50.6c-8.2 0-13.2 6.1-13.2 14.4s4.9 14.2 13.2 14.2c5.4 0 9.2-2.5 11.5-6.8l-4.2-3c-2.3 3.5-4 4.5-7 4.5-4.5 0-6.9-2.7-7.4-7.1h19.5c.1-.6.1-1.2.1-1.7-.1-8.5-4.5-14.5-12.5-14.5zm-7 11.6c.7-3.9 3.1-6.3 7.1-6.3 4 0 6.2 2.4 6.8 6.3z" id="path157" fill="#221f20"/><path class="st0" d="M-767.4 76c-2.3 0-3.7-1.4-3.7-4V54h7.1v-2.9h-7.1v-9.3h-3.6v9.3h-3.8V54h3.8v18c0 4.2 2.9 7.1 7.3 7.1 2.1 0 3.8-.7 5-1.9l-2-2.5c-.9 1-1.8 1.3-3 1.3z" id="path159" fill="#221f20"/><path class="st0" d="M-745.1 50.6c-3.8 0-7 1.8-9 4.6V37.4h-3.6v41.2h3.6V61.8c0-4.4 3.6-7.9 8.1-7.9s7.9 3.4 7.9 7.8v17h3.6V61.3c0-6.1-4.6-10.7-10.6-10.7z" id="path161" fill="#221f20"/><path class="st0" d="M-714.8 50.6c-8 0-13 6.3-13 14.3 0 8.1 5.1 14.3 13 14.3 4.9 0 8.6-2.3 10.8-6l-2.5-1.8c-2.1 3.3-4.6 4.7-8.1 4.7-5.7 0-9.2-4.1-9.6-9.9h22.1c.1-.5.1-1 .1-1.4-.2-8.3-5.1-14.2-12.8-14.2zm-9.5 12.7c.6-5.6 4-9.5 9.5-9.5 5.4 0 8.7 3.9 9.2 9.5z" id="path163" fill="#221f20"/></g><g id="g175"><path class="st1" d="M-933.1 40.7h-101c-2.3 0-4.2 1.8-4.3 4.2l-2.3 79.5c0 1.2.4 2.3 1.2 3.1.8.8 1.9 1.3 3.1 1.3h105.6c1.2 0 2.3-.5 3.1-1.3.8-.8 1.2-2 1.2-3.1l-2.3-79.5c0-2.3-1.9-4.2-4.3-4.2zm-14.8 46.2l-4.3 4.3c-.7.7-1.5 1-2.4 1-.9 0-1.7-.3-2.4-1-1.3-1.3-1.3-3.5 0-4.8l4.3-4.3c2.9-2.9 4.5-6.8 4.5-11 0-4.1-1.6-8-4.5-11-6-6-15.9-6-21.9 0l-13.1 13.1c-1.3 1.3-3.5 1.3-4.8 0-1.3-1.3-1.3-3.5 0-4.8l4.3-4.3c-.3-.2-.6-.3-.8-.6l-3.5-3.5c-6-6-15.9-6-21.9 0-6 6-6 15.9 0 21.9l1.5 1.5 29.4 29.4 17.1-17.1c1.3-1.3 3.5-1.3 4.8 0 1.3 1.3 1.3 3.5 0 4.8l-19.5 19.5c-.7.7-1.5 1-2.4 1-.9 0-1.7-.3-2.4-1l-31.8-31.8-1.5-1.5c-8.7-8.7-8.7-22.8 0-31.5s22.8-8.7 31.5 0l3.5 3.5c.2.2.4.5.6.8l4.3-4.3c8.7-8.7 22.8-8.7 31.5 0 4.2 4.2 6.5 9.8 6.5 15.8 0 6.1-2.4 11.7-6.6 15.9z" id="path167" fill="none"/><path class="st1" d="M-963 30.9c0-11.4-9.3-20.6-20.6-20.6s-20.6 9.3-20.6 20.6v3h41.3v-3z" id="path169" fill="none"/><path class="st2" d="M-933.1 33.9h-23.2v-3c0-15.1-12.3-27.4-27.4-27.4-15.1 0-27.4 12.3-27.4 27.4v3h-23c-6.1 0-10.9 4.7-11.1 10.8l-2.3 79.5c-.1 3 1 5.9 3.1 8.1 2.1 2.2 4.9 3.4 8 3.4h105.6c3 0 5.9-1.2 8-3.4 2.1-2.2 3.2-5 3.1-8.1l-2.3-79.5c-.2-6-5-10.8-11.1-10.8zm-71.2-3c0-11.4 9.3-20.6 20.6-20.6s20.6 9.3 20.6 20.6v3h-41.3v-3zm76.6 96.7c-.8.8-1.9 1.3-3.1 1.3h-105.6c-1.2 0-2.3-.5-3.1-1.3-.8-.8-1.3-2-1.2-3.1l2.3-79.5c.1-2.3 2-4.2 4.3-4.2h101c2.3 0 4.2 1.8 4.3 4.2l2.3 79.5c0 1.1-.4 2.2-1.2 3.1z" id="path171" fill="#dd4a33"/><path class="st2" d="M-979.4 55.4l-4.3 4.3c-.2-.3-.3-.6-.6-.8l-3.5-3.5c-8.7-8.7-22.8-8.7-31.5 0s-8.7 22.8 0 31.5l1.5 1.5 31.8 31.8c.7.7 1.5 1 2.4 1 .9 0 1.7-.3 2.4-1l19.5-19.5c1.3-1.3 1.3-3.5 0-4.8-1.3-1.3-3.5-1.3-4.8 0l-17.1 17.1-29.4-29.4-1.5-1.5c-6-6-6-15.9 0-21.9 6-6 15.9-6 21.9 0l3.5 3.5c.2.2.5.4.8.6l-4.3 4.3c-1.3 1.3-1.3 3.5 0 4.8 1.3 1.3 3.5 1.3 4.8 0l13.1-13.1c6-6 15.9-6 21.9 0 2.9 2.9 4.5 6.8 4.5 11 0 4.1-1.6 8-4.5 11l-4.3 4.3c-1.3 1.3-1.3 3.5 0 4.8.7.7 1.5 1 2.4 1 .9 0 1.7-.3 2.4-1l4.3-4.3c4.2-4.2 6.5-9.8 6.5-15.8s-2.3-11.5-6.5-15.8c-8.6-8.8-22.7-8.8-31.4-.1z" id="path173" fill="#dd4a33"/></g><g id="g195"><path class="st1" d="M-884.4 106c-3.2 0-5.9 2.4-7 5.7v6.4c1.1 3.4 3.8 5.7 7 5.7 4.8 0 7.6-4 7.6-8.9s-2.8-8.9-7.6-8.9z" id="path177" fill="none"/><path class="st1" d="M-837.4 120.5c0 2 1.5 3.4 3.7 3.4 2.8 0 5.6-1.6 7.7-3.4V118l-3.6-.5c-6.4-1.1-7.8.8-7.8 3z" id="path179" fill="none"/><path class="st1" d="M-768.1 106c-4.8 0-7.6 4-7.6 8.9s2.8 8.9 7.6 8.9c3.2 0 6-2.4 7.1-5.7v-6.4c-1.1-3.3-3.9-5.7-7.1-5.7z" id="path181" fill="none"/><path class="st0" d="M-883.4 100.6c-3.2 0-6 1.3-8 3.4V87.4h-6v41.2h5.4l.3-3.1c2 2.3 4.9 3.6 8.3 3.6 7.8 0 12.6-6.3 12.6-14.3 0-7.9-4.8-14.2-12.6-14.2zm-1 23.2c-3.2 0-5.9-2.4-7-5.7v-6.4c1.1-3.4 3.8-5.7 7-5.7 4.8 0 7.6 4 7.6 8.9s-2.8 8.9-7.6 8.9z" id="path183" fill="#221f20"/><path class="st0" d="M-859 105l-.3-3.8h-5.6v27.5h6.1V114c0-4.7 3.5-7.9 7.3-7.9 2.2 0 3.5.7 4.1 1l2.9-4.3c-1.6-1.4-3.2-2-6.7-2-3-.2-5.8 1.6-7.8 4.2z" id="path185" fill="#221f20"/><path class="st0" d="M-831.8 100.6c-5.3 0-8.7 1.8-11.1 4.7l4.2 3.8c1.8-2.3 3.7-3.3 6.6-3.3 3.2 0 6 1.5 6 5.2v2.5l-4.6-.6c-9.2-1.3-13 3-13 7.9s3.6 8.4 8.5 8.4c3.3 0 6.7-1.6 9.5-4l.3 3.4h5.4v-17.3c-.1-7.2-5.3-10.7-11.8-10.7zm5.7 19.8c-2.1 1.8-4.9 3.4-7.7 3.4-2.2 0-3.7-1.3-3.7-3.4 0-2.1 1.5-4 7.8-3.1l3.6.5z" id="path187" fill="#221f20"/><path class="st0" d="M-798.1 100.6c-3.6 0-6.6 1.4-8.7 3.8l-.3-3.2h-5.6v27.5h6.1v-16.3c0-3.5 3-6.3 6.7-6.3 3.6 0 6.3 2.5 6.3 6v16.7h6.2v-17.4c.1-6.4-4.5-10.8-10.7-10.8z" id="path189" fill="#221f20"/><path class="st0" d="M-761 104c-2-2.1-4.8-3.4-8.1-3.4-7.8 0-12.6 6.3-12.6 14.3s4.8 14.3 12.6 14.3c3.4 0 6.3-1.4 8.3-3.6l.3 3.1h5.4V87.5h-5.9zm0 14.1c-1.1 3.4-3.8 5.7-7.1 5.7-4.8 0-7.6-4-7.6-8.9s2.8-8.9 7.6-8.9c3.2 0 6 2.4 7.1 5.7z" id="path191" fill="#221f20"/><path class="st0" d="M-735.7 112.3c-3.2-1-6-1.8-6-4.1 0-2 2.9-3.1 5.4-2.8 2 .2 4.3 1.2 5.7 2.4l3.3-4.2c-2.5-1.8-6.5-3-10.1-3-5.8 0-10.5 3.5-10.5 8.4 0 5.1 5 6.6 9.2 8 3.1 1 5.8 1.9 5.8 4.2 0 2-2.2 3.2-5.2 3.1-2.9-.1-6.7-1.4-8.1-3.2l-3 4.2c2.3 2.3 7.1 3.9 11.5 3.9 6.4 0 11.1-3.6 11.1-8.7-.1-5.4-4.9-6.9-9.1-8.2z" id="path193" fill="#221f20"/></g></g></svg>